<svg preserveAspectRatio="none" width="100%" height="100%" overflow="visible" style="display: block;" viewBox="0 0 18 18" fill="none" xmlns="http://www.w3.org/2000/svg">
<g id="icon">
<g id="Vector">
<path d="M1.44444 10.2C1.03519 10.2 0.692371 10.0756 0.416 9.82691C0.138667 9.57731 0 9.26834 0 8.90001C0 8.53167 0.138667 8.22271 0.416 7.97311C0.692371 7.72437 1.03519 7.60001 1.44444 7.60001H16.5556C16.9648 7.60001 17.3076 7.72437 17.584 7.97311C17.8613 8.22271 18 8.53167 18 8.90001C18 9.26834 17.8613 9.57731 17.584 9.82691C17.3076 10.0756 16.9648 10.2 16.5556 10.2H1.44444Z" fill="var(--fill-0, white)"/>
<path d="M1.44444 3.6C1.03519 3.6 0.692371 3.47563 0.416 3.2269C0.138667 2.9773 0 2.66833 0 2.3C0 1.93167 0.138667 1.6227 0.416 1.3731C0.692371 1.12437 1.03519 1 1.44444 1H16.5556C16.9648 1 17.3076 1.12437 17.584 1.3731C17.8613 1.6227 18 1.93167 18 2.3C18 2.66833 17.8613 2.9773 17.584 3.2269C17.3076 3.47563 16.9648 3.6 16.5556 3.6H1.44444Z" fill="var(--fill-0, white)"/>
<path d="M1.44444 16.8C1.03519 16.8 0.692371 16.6756 0.416 16.4269C0.138667 16.1773 0 15.8683 0 15.5C0 15.1317 0.138667 14.8227 0.416 14.5731C0.692371 14.3244 1.03519 14.2 1.44444 14.2H16.5556C16.9648 14.2 17.3076 14.3244 17.584 14.5731C17.8613 14.8227 18 15.1317 18 15.5C18 15.8683 17.8613 16.1773 17.584 16.4269C17.3076 16.6756 16.9648 16.8 16.5556 16.8H1.44444Z" fill="var(--fill-0, white)"/>
</g>
</g>
</svg>
